<?xml version="1.0" standalone="no"?><!DOCTYPE svg PUBLIC "-//W3C//DTD SVG 1.1//EN" "http://www.w3.org/Graphics/SVG/1.1/DTD/svg11.dtd"><svg t="1752390985107" class="icon" viewBox="0 0 1024 1024" version="1.1" xmlns="http://www.w3.org/2000/svg" p-id="8487" xmlns:xlink="http://www.w3.org/1999/xlink" width="200" height="200"><path d="M741.632 202.56a38.4 38.4 0 0 1 38.4 38.4v203.2a38.4 38.4 0 0 1-38.4 38.4 186.88 186.88 0 0 0-139.52 62.272 186.624 186.624 0 0 0-45.248 157.12c9.472 55.488 43.712 103.68 92.48 131.328a38.4 38.4 0 0 1-7.872 70.144c-65.728 19.84-149.76 30.912-238.656 30.912C194.56 934.4 25.6 878.08 25.6 783.04V240.96a38.4 38.4 0 1 1 76.8 0v542.08c0 29.76 134.4 74.56 300.416 74.56 49.024 0 96.256-3.648 138.688-10.304l3.52-0.64-1.472-1.536a263.872 263.872 0 0 1-59.52-115.584l-2.88-14.592a263.424 263.424 0 0 1 63.808-221.44 263.68 263.68 0 0 1 151.808-83.84l6.464-0.96V240.96a38.4 38.4 0 0 1 32.192-37.888l6.208-0.512z" p-id="8488"></path><path d="M402.816 89.6c208.256 0 377.216 56.32 377.216 151.36 0 94.976-168.96 151.296-377.216 151.296S25.6 336 25.6 240.96c0-95.04 168.96-151.36 377.216-151.36z m0 76.8C236.8 166.4 102.4 211.2 102.4 240.96c0 29.696 134.4 74.496 300.416 74.496s300.416-44.8 300.416-74.496c0-29.76-134.4-74.56-300.416-74.56zM64 563.968a38.4 38.4 0 0 1 38.4 38.4c0 29.696 134.4 74.496 300.416 74.496 38.592 0 76.16-2.176 111.552-6.528a38.4 38.4 0 0 1 9.28 76.288c-38.4 4.672-79.168 7.04-120.832 7.04-208.256 0-377.216-56.32-377.216-151.296a38.4 38.4 0 0 1 38.4-38.4z m0-180.736a38.4 38.4 0 0 1 38.4 38.4c0 29.76 134.4 74.56 300.416 74.56 58.432 0 114.496-5.12 163.392-14.72a38.4 38.4 0 0 1 14.72 75.456c-53.888 10.496-114.88 16-178.112 16C194.56 572.992 25.6 516.672 25.6 421.696a38.4 38.4 0 0 1 38.4-38.4z" p-id="8489"></path><path d="M741.632 405.824a264.32 264.32 0 1 1 0 528.576 264.32 264.32 0 0 1 0-528.576z m0 76.8a186.88 186.88 0 0 0-139.52 62.272 186.624 186.624 0 0 0-45.248 157.12A187.712 187.712 0 0 0 741.632 857.6a187.52 187.52 0 0 0 0-374.976z" p-id="8490"></path><path d="M812.352 738.112c60.48 0 109.504 49.024 109.504 109.504a38.4 38.4 0 0 1-76.8 0 32.704 32.704 0 0 0-32.64-32.64H670.08a32.704 32.704 0 0 0-32.704 32.64 38.4 38.4 0 0 1-76.8 0c0-60.48 49.024-109.44 109.504-109.44h142.208z" p-id="8491"></path><path d="M741.248 524.8a109.504 109.504 0 1 1 0 219.008 109.504 109.504 0 0 1 0-219.008z m0 76.8a32.704 32.704 0 1 0 0 65.408 32.704 32.704 0 0 0 0-65.408z" p-id="8492"></path></svg>