<?xml version="1.0" standalone="no"?><!DOCTYPE svg PUBLIC "-//W3C//DTD SVG 1.1//EN" "http://www.w3.org/Graphics/SVG/1.1/DTD/svg11.dtd"><svg t="1752390918652" class="icon" viewBox="0 0 1024 1024" version="1.1" xmlns="http://www.w3.org/2000/svg" p-id="6588" xmlns:xlink="http://www.w3.org/1999/xlink" width="200" height="200"><path d="M313.658929 658.652699c-67.355792 0-205.003253 0.790428-277.892044 1.35502V132.904891c0-53.86205 43.586481-97.392071 97.448531-97.50499h671.130176v581.52947c0 1.863153-0.338755 7.960743-1.919612 14.28417a52.563489 52.563489 0 0 1-14.792303 26.874566c-7.904284 6.775101-20.099465 14.28417-51.321387 14.735844-18.518608-0.282296-27.834372-4.290897-34.891768-8.807631-10.21911-6.718641-17.615262-19.196118-21.906159-32.520483a106.707835 106.707835 0 0 1-3.839224-16.768374c-0.395214-1.919612-0.451673-3.613387-0.564592-4.516734v-0.112918-143.406296c0-27.100402-2.314826-52.168275-8.299498-75.824668-8.581794-34.891768-27.94729-68.14622-58.717538-89.092573-30.770249-21.172189-67.46871-28.511882-106.538458-28.511882H279.952804c-46.35298 0-87.455257 17.954017-117.547996 44.828582-29.866902 26.761647-51.321387 63.629487-51.716602 106.877213a116.305894 116.305894 0 0 0 15.413354 57.92711c15.752109 27.439158 42.344379 48.103214 74.808403 60.69361 32.633401 12.98561 71.872526 19.252578 119.749904 19.309036a35.964492 35.964492 0 0 1 15.582731 3.218173 34.665932 34.665932 0 0 1 14.792303 15.413354c4.177979 7.904284 6.83156 18.575068 6.83156 29.245851 0.056459 14.453548-4.855489 27.608535-11.291835 35.004687-6.83156 7.396152-13.550201 12.590395-32.915697 12.872691zM908.174009 37.093676v579.948613a169.603352 169.603352 0 0 1-13.042069 64.250538 148.657 148.657 0 0 1-70.461046 76.389259c-24.616199 12.533936-54.483101 19.252578-88.527982 19.13966h-0.903346c-35.964492 0-67.863925-9.936814-92.141369-26.479352a155.827314 155.827314 0 0 1-50.869714-58.096488c-20.268843-40.311849-20.889894-74.695484-21.285108-78.817004l-0.056459-1.016265v-0.733969-145.043613c0.056459-23.769311-2.427744-42.062083-6.266968-54.257264-3.782765-12.308099-8.073662-18.236313-12.477477-22.357832a36.359707 36.359707 0 0 0-12.759773-7.45261c-7.960743-3.048795-20.43822-5.363621-37.940563-5.363622H279.839885c-18.631527-0.056459-36.13387 7.621988-48.38551 18.518609-12.477477 10.840161-17.276507 23.995148-16.881292 29.245851a10.614324 10.614324 0 0 0 1.580856 6.041131 27.664994 27.664994 0 0 0 10.162651 9.598059c12.703314 8.355957 42.852511 18.575068 94.230358 18.349231a134.598666 134.598666 0 0 1 107.103049 50.756796c23.599934 29.641065 34.10134 65.549099 34.214258 101.174836-0.056459 35.625737-10.727243 72.380658-36.020951 102.416937-25.011413 30.149198-66.395986 50.079285-112.410211 49.571153-46.578817 0-127.880024 0.395214-197.437724 0.959806-30.318575 0.056459-58.435243 0.282296-80.45432 0.451673v126.86376c0 53.86205 43.586481 97.392071 97.44853 97.392071h758.020842c53.805591 0 97.448531-43.530022 97.44853-97.392071V133.074268a97.392071 97.392071 0 0 0-80.284942-95.980592z" fill="" p-id="6589"></path></svg>