<?xml version="1.0" standalone="no"?><!DOCTYPE svg PUBLIC "-//W3C//DTD SVG 1.1//EN" "http://www.w3.org/Graphics/SVG/1.1/DTD/svg11.dtd"><svg t="1752391688501" class="icon" viewBox="0 0 1058 1024" version="1.1" xmlns="http://www.w3.org/2000/svg" p-id="5434" xmlns:xlink="http://www.w3.org/1999/xlink" width="206.640625" height="200"><path d="M734.038016 921.6H233.302016a233.813333 233.813333 0 0 1-165.205333-67.242667A228.181333 228.181333 0 0 1 0.000683 691.131733c0-128.068267 103.662933-230.468267 233.301333-230.468266h570.094933a129.058133 129.058133 0 0 0 91.9552-37.102934 125.610667 125.610667 0 0 0 37.546667-90.862933 125.952 125.952 0 0 0-37.546667-90.8288 128.785067 128.785067 0 0 0-91.9552-37.102933H302.763349c-20.48 60.689067-77.380267 102.4-147.1488 102.4C67.550549 307.2 0.137216 240.64 0.137216 153.6 0.137216 66.56 67.550549 0 155.614549 0c69.768533 0 126.634667 41.813333 147.1488 102.4h500.736a233.813333 233.813333 0 0 1 165.205334 67.242667 228.1472 228.1472 0 0 1 68.096 163.2256 228.181333 228.181333 0 0 1-68.061867 163.2256 233.813333 233.813333 0 0 1-165.205333 67.242666H233.302016A129.092267 129.092267 0 0 0 141.312683 600.405333a125.610667 125.610667 0 0 0-37.546667 90.862934 125.952 125.952 0 0 0 37.546667 90.8288A128.785067 128.785067 0 0 0 233.302016 819.2h500.736c20.48-60.689067 77.380267-102.4 147.1488-102.4 88.064 0 155.477333 66.56 155.477333 153.6 0 87.005867-67.413333 153.6-155.477333 153.6-69.768533 0-126.634667-41.710933-147.1488-102.4z" p-id="5435" fill="#0F0F0F"></path></svg>