<?xml version="1.0" standalone="no"?><!DOCTYPE svg PUBLIC "-//W3C//DTD SVG 1.1//EN" "http://www.w3.org/Graphics/SVG/1.1/DTD/svg11.dtd"><svg t="1752391646400" class="icon" viewBox="0 0 1084 1024" version="1.1" xmlns="http://www.w3.org/2000/svg" p-id="5178" data-spm-anchor-id="a313x.search_index.0.i8.79853a81zhrg7y" xmlns:xlink="http://www.w3.org/1999/xlink" width="211.71875" height="200"><path d="M647.680602 813.176471H205.85472a206.305882 206.305882 0 0 1-145.769412-59.331765A201.336471 201.336471 0 0 1 0.000602 609.822118c0-113.001412 91.467294-203.354353 205.854118-203.354353h503.024941a113.874824 113.874824 0 0 0 81.136941-32.737883 110.832941 110.832941 0 0 0 33.129412-80.173176 111.134118 111.134118 0 0 0-33.129412-80.143059 113.633882 113.633882 0 0 0-81.136941-32.737882H267.144132c-18.070588 53.549176-68.276706 90.352941-129.837177 90.352941C59.603426 271.058824 0.121073 212.269176 0.121073 135.529412S59.603426 0 137.306955 0c61.560471 0 111.736471 36.894118 129.837177 90.352941h441.825882a206.305882 206.305882 0 0 1 145.769412 59.331765 201.306353 201.306353 0 0 1 60.084706 144.022588 201.336471 201.336471 0 0 1-60.054588 144.022588 206.305882 206.305882 0 0 1-145.769412 59.331765H205.85472A113.904941 113.904941 0 0 0 124.687661 529.769412a110.832941 110.832941 0 0 0-33.129412 80.173176 111.134118 111.134118 0 0 0 33.129412 80.143059A113.633882 113.633882 0 0 0 205.85472 722.823529h441.825882c18.070588-53.549176 68.276706-90.352941 129.837177-90.352941 77.703529 0 137.185882 58.729412 137.185882 135.529412 0 76.769882-59.482353 135.529412-137.185882 135.529412-61.560471 0-111.736471-36.803765-129.837177-90.352941z" fill="#0F0F0F" p-id="5179"></path><path d="M813.177073 512a240.941176 240.941176 0 1 0 0 481.882353 240.941176 240.941176 0 0 0 0-481.882353z" fill="#0F0F0F" p-id="5180" data-spm-anchor-id="a313x.search_index.0.i6.79853a81zhrg7y" class=""></path><path d="M950.664132 779.143529c0 9.306353-7.559529 16.865882-16.865883 16.865883h-116.85647A33.942588 33.942588 0 0 1 783.059426 762.066824l0.090353-125.078589a16.956235 16.956235 0 0 1 33.942588 0l-0.090353 125.289412h117.217882a16.865882 16.865882 0 0 1 16.474353 16.865882z" fill="#0F0F0F" p-id="5181" data-spm-anchor-id="a313x.search_index.0.i7.79853a81zhrg7y"></path></svg>